<?xml version="1.0" standalone="no"?>
<!DOCTYPE svg PUBLIC "-//W3C//DTD SVG 20010904//EN"
 "http://www.w3.org/TR/2001/REC-SVG-20010904/DTD/svg10.dtd">
<svg version="1.0" xmlns="http://www.w3.org/2000/svg"
 width="2080.000000pt" height="2080.000000pt" viewBox="0 0 2080.000000 2080.000000"
 preserveAspectRatio="xMidYMid meet">

<g transform="translate(0.000000,2080.000000) scale(0.100000,-0.100000)"
fill="#000000" stroke="none">
<path d="M9830 20199 c-866 -51 -1733 -218 -2559 -495 -1634 -548 -3093 -1530
-4228 -2844 -146 -170 -403 -491 -403 -504 0 -6 21 -3 144 20 122 23 265 75
566 204 151 64 286 121 300 125 14 4 30 12 36 17 27 20 316 109 496 152 336
79 499 101 810 112 451 15 1100 -45 1423 -131 155 -41 139 -47 226 85 184 277
517 620 792 817 239 171 516 337 842 504 298 153 399 197 614 268 558 186 811
218 1644 208 260 -3 458 -9 497 -16 87 -16 476 -111 630 -155 484 -137 949
-348 1340 -609 325 -216 576 -432 822 -705 80 -88 116 -121 127 -117 50 19
338 98 471 129 168 39 436 87 620 111 309 41 780 43 1180 5 457 -43 748 -116
1115 -279 183 -81 187 -92 -57 162 -899 938 -2021 1703 -3238 2210 -1015 422
-2085 664 -3209 727 -210 11 -799 11 -1001 -1z"/>
<path d="M10060 18663 c-418 -15 -655 -58 -1047 -188 -248 -83 -313 -110 -600
-253 -881 -438 -1403 -864 -1756 -1433 l-48 -77 -57 14 c-31 7 -124 29 -207
48 -359 84 -774 127 -1210 127 -350 0 -570 -30 -979 -131 -212 -53 -399 -120
-754 -272 -375 -160 -480 -194 -696 -223 -135 -19 -275 -16 -456 9 -228 31
-516 13 -587 -37 -46 -33 -91 -94 -104 -141 -30 -110 33 -231 243 -466 112
-126 231 -273 249 -307 8 -16 41 -75 73 -133 111 -197 177 -342 366 -810 241
-595 489 -998 875 -1424 166 -184 471 -441 639 -541 208 -123 522 -252 663
-272 l32 -5 0 -132 c0 -188 36 -408 112 -695 55 -207 159 -463 269 -663 27
-49 46 -88 42 -86 -4 2 -61 31 -127 64 -278 142 -544 229 -886 289 -80 14
-160 25 -177 25 -27 0 -34 7 -66 66 -87 158 -153 216 -350 309 -326 154 -556
203 -911 192 -349 -11 -642 -85 -970 -247 -314 -154 -590 -367 -808 -622 l-48
-56 24 -73 c36 -111 62 -218 54 -225 -3 -3 -50 -23 -104 -43 l-98 -38 3 -49
c9 -160 120 -384 254 -516 93 -90 297 -204 443 -246 161 -47 350 -65 550 -53
120 7 186 4 495 -24 215 -20 366 -46 576 -100 698 -179 1362 -511 2023 -1010
275 -208 616 -511 713 -634 l50 -63 -47 -227 c-25 -124 -72 -354 -105 -511
-139 -676 -206 -924 -318 -1177 -73 -165 -115 -228 -221 -333 -155 -155 -321
-253 -508 -300 -163 -42 -447 -44 -674 -5 l-77 13 -81 80 c-125 124 -264 211
-433 270 -236 84 -432 86 -623 9 l-60 -25 -20 -121 -21 -122 -22 31 c-12 16
-27 41 -32 55 -9 25 -13 26 -57 20 -38 -5 -55 -14 -81 -43 -89 -101 -177 -286
-226 -478 -53 -208 -61 -281 -60 -549 l1 -250 47 -205 c124 -531 320 -961 575
-1260 146 -172 359 -345 513 -418 118 -56 186 -75 299 -80 161 -7 186 1 504
154 133 65 276 117 368 134 29 5 111 20 182 33 272 50 1274 219 1556 261 671
102 1375 178 2009 216 1085 65 2592 7 3805 -146 307 -38 1006 -140 1232 -179
111 -20 221 -37 245 -39 496 -37 1289 -226 1838 -439 95 -37 339 -145 361
-160 10 -8 32 -31 49 -53 85 -106 205 -149 425 -149 131 0 145 2 215 29 170
66 310 155 471 300 185 166 284 305 429 601 142 290 200 461 270 795 128 605
117 1105 -35 1539 -40 115 -70 178 -123 261 -19 30 -38 66 -42 80 -5 20 -14
26 -41 28 -33 2 -36 -1 -73 -68 -22 -38 -43 -70 -47 -70 -4 0 -14 12 -24 26
-15 23 -17 46 -14 147 l4 121 -45 14 c-64 20 -286 20 -375 -1 -163 -37 -508
-45 -738 -18 -282 33 -641 124 -862 218 -90 39 -115 57 -115 86 0 15 5 18 23
13 50 -15 169 -18 229 -7 134 26 344 153 458 278 94 102 186 254 224 368 15
46 22 53 87 90 172 96 300 264 355 466 13 47 18 100 18 199 0 116 -3 143 -22
192 -18 45 -29 58 -54 67 -16 6 -34 9 -38 6 -4 -2 -10 -49 -13 -103 -12 -177
-61 -319 -151 -433 -52 -66 -131 -133 -146 -124 -5 3 -10 30 -10 59 0 86 -17
156 -59 241 -51 102 -111 170 -195 219 -56 33 -64 41 -54 54 49 59 503 401
773 582 612 410 1281 727 1808 855 l138 33 92 -18 c204 -41 329 -54 522 -53
148 0 216 5 306 21 539 98 832 368 817 752 -5 134 -24 164 -130 216 l-80 39 6
35 c3 19 9 74 12 121 l7 87 -56 74 c-138 183 -418 416 -672 560 -206 117 -508
218 -820 275 -143 26 -540 26 -670 0 -206 -42 -341 -102 -476 -213 -104 -85
-179 -173 -255 -302 -1 -2 -78 -12 -171 -23 -178 -20 -399 -58 -676 -115 -140
-30 -245 -57 -572 -152 -11 -3 19 36 69 89 205 215 380 499 490 793 110 292
179 681 180 1007 l1 177 55 12 c365 81 962 433 1324 780 254 244 554 659 774
1070 119 222 290 638 406 984 174 520 265 665 659 1061 98 99 188 197 199 219
44 86 14 201 -68 257 -165 113 -375 150 -834 147 -464 -4 -523 10 -1070 257
-593 268 -739 327 -948 379 -361 91 -908 139 -1322 117 -287 -15 -586 -58
-920 -132 -140 -31 -164 -37 -444 -121 -92 -27 -172 -46 -176 -41 -4 4 -49 58
-101 118 -318 375 -809 750 -1314 1003 -256 128 -506 229 -755 305 -233 72
-288 88 -435 122 -82 20 -186 45 -230 55 -44 11 -118 22 -165 25 -105 6 -727
12 -830 8z m915 -124 c143 -26 407 -89 582 -139 561 -159 1064 -398 1504 -716
345 -250 546 -443 838 -809 210 -263 309 -412 412 -622 50 -102 80 -136 102
-114 25 25 15 66 -45 185 -93 185 -222 387 -340 529 -72 87 -75 94 -36 105
286 84 371 106 505 136 626 140 1081 170 1698 111 427 -41 750 -130 1135 -312
174 -83 572 -259 674 -300 236 -92 317 -103 826 -113 417 -8 433 -10 591 -71
101 -39 169 -98 169 -148 0 -53 -33 -102 -129 -189 -83 -76 -269 -277 -367
-397 -78 -95 -157 -220 -210 -331 -47 -100 -158 -398 -214 -579 -60 -189 -250
-641 -347 -825 -276 -520 -628 -973 -959 -1233 -352 -277 -720 -486 -1008
-573 -115 -35 -111 -36 -126 52 -12 77 -76 341 -103 425 l-15 46 96 32 c476
161 1066 628 1365 1081 152 231 262 520 347 910 60 275 118 434 196 541 19 26
34 50 34 54 0 13 70 96 175 205 117 122 160 181 186 256 53 151 -12 241 -205
285 -67 15 -112 8 -376 -57 -216 -53 -332 -73 -480 -84 -151 -12 -363 9 -515
51 -168 47 -341 83 -470 98 -216 26 -569 22 -765 -10 -36 -5 -153 -23 -260
-40 -282 -43 -457 -86 -792 -196 -12 -4 -21 5 -32 31 -17 41 -43 47 -70 17
-17 -18 -16 -22 9 -83 102 -243 164 -406 240 -628 146 -428 244 -689 308 -820
36 -73 121 -214 206 -340 299 -445 379 -577 501 -820 192 -384 278 -632 346
-1000 32 -169 21 -453 -27 -745 -94 -566 -337 -1042 -703 -1373 -45 -41 -95
-86 -112 -102 -18 -16 -65 -42 -105 -58 -146 -58 -356 -155 -479 -219 -401
-210 -971 -603 -1316 -909 -52 -46 -76 -62 -91 -58 -11 3 -53 -9 -94 -26 -227
-98 -539 -182 -984 -264 -480 -89 -1061 -144 -1620 -153 -890 -15 -1559 84
-2615 386 -348 99 -427 124 -590 183 -481 176 -799 355 -1219 685 -364 286
-685 630 -872 934 -28 46 -67 108 -86 137 -52 79 -166 303 -217 424 -86 205
-159 463 -212 748 -22 114 -24 420 -5 575 6 55 16 170 21 255 11 179 57 456
101 615 44 157 119 342 213 528 98 192 181 332 406 682 150 233 232 364 327
520 17 28 56 92 87 143 113 186 200 386 311 712 321 948 695 1467 1410 1954
260 178 454 288 749 428 245 116 388 174 578 237 325 106 543 152 813 171 229
15 269 16 675 12 311 -3 381 -6 475 -23z m-5485 -1740 c323 -18 607 -58 875
-124 77 -19 152 -37 167 -40 l28 -5 -75 -151 c-96 -191 -196 -434 -279 -675
-35 -104 -69 -201 -75 -217 l-11 -27 -52 20 c-87 34 -423 118 -578 144 -562
97 -829 94 -1365 -14 -361 -73 -491 -77 -739 -20 -287 65 -545 90 -629 61 -80
-28 -137 -104 -137 -184 0 -74 47 -150 187 -303 69 -77 139 -159 155 -184 37
-58 73 -171 147 -466 115 -460 197 -670 377 -967 205 -338 564 -666 923 -847
111 -55 281 -120 315 -120 13 0 16 -10 16 -47 0 -64 -28 -405 -34 -410 -16
-17 -320 94 -481 175 -387 194 -810 597 -1167 1112 -138 200 -318 549 -448
870 -188 465 -227 555 -331 760 -119 235 -178 320 -386 554 -153 173 -233 301
-233 369 1 43 36 103 71 119 92 42 299 47 522 12 76 -13 143 -15 271 -11 313
9 483 54 916 240 362 155 553 222 805 282 451 108 688 126 1245 94z m11016
-864 c127 -16 304 -54 416 -89 105 -34 359 -60 498 -52 152 8 301 32 500 81
325 80 402 80 488 2 60 -56 7 -167 -172 -357 -243 -259 -312 -397 -405 -812
-112 -498 -250 -813 -476 -1084 -202 -243 -527 -521 -810 -694 -147 -90 -436
-214 -454 -194 -5 5 -30 59 -55 121 -144 343 -339 687 -626 1103 -127 184
-216 334 -266 450 -45 103 -142 367 -278 760 -57 162 -123 347 -149 410 -25
63 -44 117 -41 121 10 16 374 122 533 154 154 32 434 72 596 85 72 5 148 12
170 14 73 7 419 -5 531 -19z m-11419 -240 c205 -22 460 -66 653 -114 178 -45
340 -98 340 -112 0 -58 -327 -623 -630 -1089 -426 -656 -584 -999 -665 -1443
-14 -76 -25 -149 -25 -163 0 -13 -4 -24 -10 -24 -29 0 -240 89 -335 141 -327
181 -658 496 -837 798 -180 303 -271 540 -378 986 -50 205 -100 377 -122 419
-20 38 -95 130 -193 236 -158 171 -189 251 -126 319 27 29 34 31 99 31 86 0
306 -32 477 -70 294 -65 379 -62 795 20 230 46 353 65 460 73 126 9 367 5 497
-8z m-2152 -4259 c218 -37 548 -165 692 -268 l43 -31 0 -81 c0 -123 -47 -211
-195 -364 -199 -209 -441 -356 -845 -515 -203 -80 -358 -126 -582 -171 -309
-62 -545 -70 -801 -26 -248 42 -467 130 -467 186 0 17 15 26 73 49 128 50 402
180 598 285 243 129 271 147 267 168 -3 15 -17 17 -98 16 -52 0 -185 -10 -295
-22 -293 -31 -375 -36 -375 -25 0 6 46 57 103 115 373 381 889 642 1381 698
102 12 396 4 501 -14z m866 -523 c17 -44 23 -85 27 -169 9 -243 -82 -437 -320
-676 -95 -95 -269 -232 -394 -309 -176 -108 -429 -210 -642 -259 -51 -11 -104
-25 -119 -31 -115 -43 -550 -73 -726 -49 -288 39 -542 174 -691 369 -40 52
-116 189 -116 210 0 5 39 -4 87 -19 374 -119 815 -119 1319 0 340 81 768 256
1019 417 230 148 450 378 503 526 9 26 20 47 24 47 3 0 17 -26 29 -57z m247
-48 c372 -52 819 -219 1127 -421 37 -24 69 -59 117 -131 231 -340 619 -730
991 -995 l127 -91 -20 -34 c-38 -65 -248 -518 -320 -693 -108 -259 -175 -466
-270 -828 l-11 -44 -142 140 c-675 665 -1505 1169 -2452 1487 -55 19 -160 50
-234 70 -134 35 -242 77 -261 100 -27 32 25 71 185 138 312 132 596 337 819
593 105 120 177 259 212 409 18 77 23 219 11 278 -5 23 -4 37 2 37 6 0 59 -7
119 -15z m14204 -140 c260 -34 609 -143 808 -253 144 -79 337 -217 475 -341
70 -63 207 -212 201 -218 -1 -2 -40 4 -87 12 -106 18 -337 42 -496 51 l-123 7
0 -26 c0 -22 12 -31 103 -75 56 -28 176 -82 267 -122 263 -115 526 -245 533
-264 16 -40 -64 -121 -170 -175 -112 -56 -392 -88 -628 -71 -640 45 -1259 285
-1755 680 -163 130 -310 304 -310 367 0 38 157 200 263 272 208 141 567 202
919 156z m-1336 -613 c4 -170 81 -452 166 -599 102 -179 305 -376 566 -552 78
-52 298 -228 334 -267 l28 -30 -133 -43 c-571 -186 -1236 -540 -1838 -978
-422 -307 -890 -720 -1222 -1078 -245 -264 -671 -777 -683 -821 -6 -23 21 -64
43 -64 6 0 22 15 34 33 93 133 469 581 480 570 22 -24 124 -370 178 -608 27
-116 29 -121 68 -151 110 -84 489 -205 854 -271 l97 -18 -84 -100 c-156 -186
-261 -349 -378 -590 -179 -367 -304 -787 -362 -1220 -25 -183 -26 -656 -1
-838 18 -133 57 -331 81 -411 8 -25 12 -46 9 -46 -3 0 -69 20 -147 46 -509
164 -1056 284 -1636 359 -113 14 -261 35 -330 45 -1209 187 -1895 258 -3000
312 -336 16 -1438 16 -1725 0 -914 -52 -1705 -143 -2680 -308 -209 -35 -517
-86 -685 -114 -168 -27 -332 -54 -364 -59 -33 -6 -61 -9 -63 -8 -1 2 18 53 42
115 168 417 197 931 85 1487 -70 346 -224 696 -399 906 l-30 36 134 12 c225
19 402 75 552 173 232 151 351 288 458 526 131 289 211 596 380 1457 82 418
186 850 261 1085 76 240 233 612 406 963 32 64 60 117 64 117 3 0 63 -35 132
-78 358 -221 731 -369 1418 -562 844 -236 1385 -333 2074 -371 591 -33 1486
27 2125 142 450 80 755 159 990 255 11 4 -34 -46 -101 -112 -127 -125 -274
-301 -274 -326 0 -22 26 -41 47 -33 10 3 52 49 93 101 129 163 403 422 681
645 307 245 559 421 859 601 277 166 600 318 890 420 225 79 594 181 770 212
47 8 140 26 207 40 128 27 399 66 508 74 18 2 20 -5 21 -76z m224 -66 c100
-104 203 -187 390 -311 166 -110 290 -182 429 -247 478 -223 1092 -341 1556
-299 202 19 297 47 405 120 25 17 46 27 48 22 6 -17 -16 -114 -38 -172 -87
-233 -346 -405 -715 -474 -128 -24 -308 -34 -439 -24 -132 10 -357 44 -384 58
-9 5 -82 30 -162 55 -237 76 -538 235 -725 384 -103 82 -243 228 -298 310
-109 163 -183 397 -193 612 l-6 115 28 -35 c16 -19 62 -70 104 -114z m-1525
-2946 c22 -11 56 -35 74 -54 l34 -35 -49 15 c-111 35 -226 -4 -265 -89 -23
-52 -25 -146 -4 -208 41 -118 150 -219 260 -240 33 -7 62 -14 64 -16 3 -2 -17
-35 -43 -73 l-48 -70 -88 0 c-132 0 -209 35 -279 126 -56 73 -82 153 -82 247
-1 108 12 133 123 232 230 207 224 203 303 165z m98 -179 c53 -35 97 -120 97
-189 0 -46 -47 -137 -77 -151 -33 -15 -89 -14 -121 3 -35 19 -85 72 -107 115
-24 47 -18 160 10 192 45 49 146 65 198 30z m527 -115 c-31 -90 -85 -180 -153
-252 -53 -58 -135 -124 -151 -124 -8 0 -6 51 2 72 4 9 35 35 69 58 76 50 161
150 211 247 43 84 51 83 22 -1z m-1101 -309 c60 -125 163 -204 305 -233 39 -9
72 -17 74 -19 2 -1 -28 -34 -66 -73 -118 -120 -301 -192 -484 -192 -40 0 -79
4 -86 9 -7 4 -30 59 -52 122 -21 63 -50 143 -64 179 l-27 65 178 175 178 175
6 -71 c5 -50 16 -92 38 -137z m697 -105 c-54 -265 -265 -525 -530 -652 -138
-66 -264 -76 -338 -27 -33 23 -57 75 -73 158 l-7 36 64 -8 c214 -27 466 87
689 310 89 90 197 241 200 281 1 11 3 10 6 -3 3 -10 -2 -53 -11 -95z m-12662
-1116 c273 -82 447 -206 628 -450 226 -304 457 -904 498 -1287 51 -482 -114
-1120 -355 -1378 -56 -61 -155 -128 -230 -157 -71 -27 -196 -25 -295 5 -227
69 -499 276 -682 521 -71 94 -177 269 -230 380 -44 93 -108 252 -108 271 0 7
-16 53 -36 103 -43 108 -104 342 -134 516 -63 370 -16 795 122 1100 58 129 56
129 88 2 59 -233 186 -460 344 -614 60 -59 97 -80 104 -59 2 6 10 18 18 25 22
22 17 38 -30 109 -83 124 -166 390 -186 592 -9 104 1 260 21 297 5 9 35 26 66
37 85 30 272 24 397 -13z m13804 -16 c21 0 22 -4 22 -67 0 -199 -108 -622
-230 -906 -43 -100 -47 -117 -26 -117 7 0 16 -9 19 -20 7 -27 33 -25 50 3 7
12 30 49 49 82 20 33 73 143 118 245 82 187 241 503 265 529 11 11 20 1 53
-65 76 -152 136 -359 169 -583 23 -158 22 -486 -1 -681 -41 -347 -152 -801
-240 -985 -197 -409 -254 -502 -420 -673 -234 -242 -485 -387 -691 -399 -105
-6 -252 17 -302 48 -53 33 -165 161 -215 245 -142 241 -185 473 -182 984 2
355 85 749 239 1143 161 408 381 740 647 977 81 72 125 102 213 145 144 71
305 111 405 99 19 -2 45 -4 58 -4z m-663 -53 l60 -2 -65 -47 c-70 -50 -213
-191 -306 -303 -84 -101 -219 -311 -296 -461 -216 -419 -345 -894 -378 -1392
-15 -237 10 -554 64 -810 14 -64 49 -148 117 -283 l18 -37 -124 54 c-69 30
-129 54 -134 54 -19 0 -33 33 -62 147 -185 731 -70 1631 302 2376 133 265 267
466 421 632 l75 80 124 -3 c68 -1 151 -3 184 -5z m-12159 -435 c178 -204 321
-518 399 -877 122 -562 80 -1118 -114 -1539 l-38 -83 -86 -21 c-47 -12 -116
-33 -153 -46 -38 -14 -69 -24 -70 -23 -1 1 20 40 47 87 203 353 311 945 248
1365 -49 325 -248 854 -433 1149 -31 48 -56 89 -56 90 0 1 41 -3 91 -8 l91 -9
74 -85z"/>
<path d="M8410 17755 c-47 -8 -125 -26 -175 -40 -424 -123 -711 -345 -878
-680 -63 -126 -67 -179 -11 -160 21 8 33 25 54 75 60 149 199 324 345 435 197
149 465 255 720 285 133 15 147 21 143 63 -3 32 -4 32 -58 34 -30 1 -93 -5
-140 -12z"/>
<path d="M13196 16995 c-10 -15 -15 -32 -13 -39 3 -7 65 -42 138 -78 353 -175
644 -503 763 -859 35 -104 66 -252 66 -315 0 -55 60 -81 75 -33 9 27 -23 229
-51 328 -76 262 -190 448 -414 671 -126 127 -269 230 -414 299 -118 56 -129
58 -150 26z"/>
<path d="M7285 15951 c-38 -10 -96 -30 -128 -46 -67 -33 -184 -130 -240 -198
-50 -61 -143 -211 -197 -317 -35 -68 -64 -105 -142 -184 -69 -69 -98 -105 -98
-122 0 -13 6 -25 13 -25 36 -4 58 9 126 73 137 130 403 284 627 361 279 97
581 118 809 56 110 -30 146 -33 170 -16 16 13 18 20 10 44 -9 23 -23 32 -88
55 -78 28 -145 70 -290 185 -136 108 -259 153 -417 152 -47 0 -116 -8 -155
-18z"/>
<path d="M9780 15964 c-19 -2 -82 -9 -140 -15 -840 -88 -1502 -529 -1646
-1095 -44 -176 -30 -396 36 -564 13 -33 16 -50 8 -43 -7 5 -51 38 -98 73 -111
83 -276 244 -356 346 -84 107 -89 111 -114 89 -31 -28 -24 -56 32 -131 125
-167 386 -399 575 -510 44 -25 76 -55 111 -102 28 -37 102 -118 166 -181 143
-140 206 -211 283 -322 83 -118 126 -199 161 -300 53 -151 58 -217 37 -484
-22 -284 -17 -407 19 -520 37 -116 89 -197 196 -306 79 -80 114 -107 205 -158
189 -105 356 -159 563 -181 129 -13 190 -9 352 27 287 63 569 212 816 431 134
120 269 275 461 534 34 46 110 137 168 203 59 66 114 131 123 145 71 110 330
407 489 560 279 269 509 427 775 535 66 26 84 38 91 60 21 61 -21 54 -230 -36
-136 -59 -416 -155 -590 -203 -136 -38 -399 -96 -434 -96 -16 0 -4 16 54 75
140 140 238 296 292 465 23 70 28 109 33 223 5 153 -6 249 -42 355 -115 336
-405 629 -831 837 -288 141 -574 226 -919 271 -113 15 -561 28 -646 18z m599
-99 c441 -55 807 -176 1117 -368 371 -230 603 -532 655 -852 14 -91 7 -244
-16 -330 -59 -222 -214 -433 -443 -605 -302 -227 -687 -365 -1177 -421 -133
-16 -502 -15 -645 0 -494 54 -930 206 -1259 441 -517 368 -695 842 -481 1286
99 206 303 410 557 556 286 165 658 271 1073 307 141 13 466 5 619 -14z m806
-3353 c-3 -3 -11 0 -18 7 -9 10 -8 11 6 5 10 -3 15 -9 12 -12z m-704 -142 c38
-20 43 -20 120 -5 104 19 258 19 334 0 33 -9 61 -18 63 -20 10 -10 -99 -136
-188 -218 -193 -178 -401 -303 -550 -332 -47 -8 -170 -20 -275 -26 -309 -18
-521 3 -657 62 -36 16 -73 29 -82 29 -9 0 -16 5 -16 11 0 27 75 150 128 209
36 40 63 81 70 108 25 85 115 145 222 149 36 1 90 5 120 8 47 6 60 4 89 -17
19 -13 43 -38 54 -55 l19 -33 -54 -60 c-45 -52 -184 -260 -173 -260 10 0 251
173 254 183 10 31 84 128 120 159 127 109 306 157 402 108z"/>
<path d="M9070 15456 c-77 -18 -123 -39 -194 -90 -77 -55 -162 -146 -209 -223
-100 -165 -109 -357 -21 -434 169 -148 533 18 680 311 71 141 71 303 1 378
-54 59 -157 82 -257 58z"/>
<path d="M10563 15276 c-90 -43 -136 -137 -136 -281 0 -72 5 -106 27 -170 53
-155 144 -279 264 -359 92 -61 175 -84 249 -68 103 21 161 94 185 230 16 97
-7 214 -68 341 -39 79 -60 108 -132 180 -104 104 -170 140 -270 147 -57 4 -75
1 -119 -20z"/>
<path d="M13165 15389 c-115 -15 -201 -46 -370 -134 -172 -90 -246 -116 -375
-136 -68 -11 -85 -17 -98 -36 -14 -22 -14 -26 1 -40 14 -14 36 -14 199 -5 355
22 621 -24 894 -152 235 -111 377 -240 593 -539 51 -70 114 -164 140 -210 39
-67 52 -82 72 -82 22 0 24 4 23 42 0 29 -12 61 -41 110 l-41 68 -5 130 c-16
362 -191 674 -501 891 -123 86 -299 119 -491 93z"/>
<path d="M7467 14965 c-199 -38 -376 -147 -471 -290 -40 -61 -33 -92 18 -79
16 4 35 23 51 49 54 94 207 192 355 230 66 17 220 23 276 11 43 -10 82 21 66
51 -15 28 -28 31 -129 37 -56 4 -116 0 -166 -9z"/>
<path d="M12883 14371 c-18 -3 -42 -14 -53 -24 -17 -14 -19 -21 -10 -38 10
-18 17 -19 73 -12 34 4 87 7 116 6 213 -10 425 -202 492 -448 27 -100 31 -109
57 -113 70 -11 16 199 -92 362 -88 132 -213 225 -353 261 -57 15 -169 18 -230
6z"/>
<path d="M1926 15261 c-85 -149 -261 -498 -350 -695 -458 -1008 -735 -2067
-831 -3176 -20 -234 -39 -827 -30 -955 l7 -103 29 10 c16 5 31 13 33 17 6 10
-32 143 -44 155 -5 5 -10 42 -10 81 l0 72 138 143 c75 79 182 181 237 227 365
307 823 504 1286 554 65 7 195 9 344 6 313 -7 422 -28 674 -128 221 -89 316
-143 401 -228 41 -42 92 -105 112 -141 l38 -64 165 -28 c271 -45 503 -109 712
-198 l112 -48 -19 38 c-32 63 -95 228 -138 360 -87 271 -151 642 -152 881 0
30 -4 38 -22 42 -180 41 -501 178 -668 285 -152 96 -435 346 -607 533 -408
446 -637 814 -884 1419 -44 107 -85 209 -91 225 -6 17 -42 102 -79 190 -72
173 -147 322 -264 530 -51 91 -45 92 -99 -4z"/>
<path d="M18905 14903 c-9 -27 -23 -72 -31 -102 -8 -30 -19 -60 -24 -66 -5 -6
-25 -55 -45 -108 -275 -760 -622 -1342 -1090 -1826 -329 -340 -884 -690 -1269
-802 l-113 -32 -6 -186 c-20 -619 -179 -1123 -492 -1563 -31 -43 -54 -78 -51
-78 2 0 59 13 127 29 208 49 545 111 724 132 94 11 184 22 201 25 26 4 41 17
80 76 54 80 177 206 268 274 127 96 331 168 548 195 134 16 564 6 678 -15 236
-46 470 -115 644 -192 108 -48 274 -143 343 -197 23 -17 79 -61 125 -96 104
-80 343 -318 390 -389 49 -73 44 -108 64 463 10 300 -19 860 -66 1255 -113
962 -370 1905 -756 2770 -88 199 -222 480 -228 480 -2 0 -12 -21 -21 -47z"/>
<path d="M754 9695 c3 -22 13 -103 21 -180 43 -377 155 -1000 202 -1122 21
-58 43 -57 43 2 0 43 1 45 30 45 17 0 30 4 30 9 0 6 16 7 35 4 19 -3 41 -3 50
1 14 5 12 11 -9 42 -19 28 -23 42 -15 55 7 14 6 17 -5 13 -8 -3 -17 -1 -20 4
-3 6 7 15 24 20 22 8 28 15 23 28 -4 12 -3 15 6 10 6 -4 20 -2 29 5 13 11 12
8 -2 -9 -22 -25 -22 -25 20 -13 25 7 33 5 43 -11 9 -14 15 -17 25 -9 7 6 17 7
21 3 5 -4 5 -2 1 5 -7 13 13 63 25 63 5 0 6 6 3 14 -7 19 44 25 82 10 24 -10
32 -10 47 3 9 9 17 26 17 37 1 20 1 20 14 3 13 -16 15 -16 30 -2 9 9 16 14 16
10 0 -3 9 -1 20 5 16 9 20 8 20 -5 0 -18 19 -19 42 -2 16 13 14 46 -8 118 -3
12 3 18 21 21 35 7 69 -47 60 -94 l-6 -33 21 24 c11 13 20 20 20 16 0 -4 8 3
18 15 13 15 31 24 57 25 23 2 44 10 54 22 9 10 28 24 44 31 24 10 27 9 27 -7
0 -14 5 -18 20 -14 23 6 26 23 8 41 -9 9 -8 12 5 12 9 0 19 -1 21 -2 2 -2 13
8 24 22 26 34 71 37 123 8 30 -17 43 -20 46 -10 3 7 22 12 48 12 l43 0 -4 43
c-3 23 -6 52 -8 64 -3 21 -2 21 26 7 28 -14 30 -19 26 -66 -2 -35 1 -53 10
-55 6 -3 12 3 12 12 0 14 3 15 13 6 8 -6 17 -8 20 -4 4 3 20 6 35 5 21 0 39
10 63 36 l34 36 3 -30 c7 -57 37 -71 47 -21 11 49 15 51 46 21 16 -15 29 -22
29 -15 0 6 8 11 18 9 13 -2 17 3 15 27 -2 28 39 96 51 85 2 -3 -1 -26 -7 -53
-5 -26 -8 -49 -6 -51 2 -2 20 -7 40 -11 32 -6 37 -4 42 17 l7 23 15 -23 c9
-12 20 -20 25 -17 4 3 11 -1 14 -7 3 -7 4 -1 1 13 -4 24 -2 27 20 25 18 -1 25
-7 25 -21 1 -19 1 -19 19 3 23 26 37 28 49 6 7 -13 11 -14 23 -2 33 31 80 58
89 53 6 -3 10 -1 10 4 0 6 7 11 15 11 8 0 15 -4 15 -10 0 -6 27 -10 60 -10 33
0 60 4 60 9 0 5 -66 27 -147 50 -420 117 -680 152 -1183 156 -350 3 -423 11
-582 61 -98 31 -217 89 -310 152 -69 45 -192 167 -229 225 l-20 32 5 -40z
m1541 -591 c37 -24 33 -46 -5 -32 -33 11 -44 23 -35 38 8 13 11 13 40 -6z
m211 -51 c-10 -10 -19 5 -10 18 6 11 8 11 12 0 2 -7 1 -15 -2 -18z m-367 -25
c-1 -27 -14 -47 -25 -40 -7 4 -8 15 -3 30 9 23 29 31 28 10z m-189 -76 c0 -13
-12 -22 -22 -16 -10 6 -1 24 13 24 5 0 9 -4 9 -8z"/>
<path d="M2210 8900 c12 -23 50 -27 50 -6 0 7 -10 16 -22 20 -36 9 -39 7 -28
-14z"/>
<path d="M1996 8845 c4 -8 10 -12 15 -9 11 6 2 24 -11 24 -5 0 -7 -7 -4 -15z"/>
<path d="M19710 8666 c-218 -112 -516 -165 -860 -153 -156 6 -363 29 -475 55
-32 7 -63 3 -151 -19 -364 -91 -808 -278 -1282 -541 -166 -92 -182 -103 -165
-115 17 -13 34 -12 87 4 16 4 18 1 13 -17 -5 -20 -3 -22 24 -16 16 3 41 1 56
-5 17 -6 30 -6 36 0 7 7 29 0 68 -20 49 -27 58 -36 64 -67 l7 -36 15 32 c13
27 18 30 35 21 12 -6 17 -17 14 -26 -5 -13 -1 -14 23 -10 18 4 35 1 47 -9 11
-9 14 -13 7 -10 -6 4 -14 2 -18 -4 -4 -6 8 -10 28 -10 28 0 41 -7 64 -36 26
-32 32 -35 51 -25 30 16 60 14 71 -6 8 -15 13 -16 30 -6 13 8 21 9 23 2 2 -6
24 -13 48 -16 61 -7 111 -41 104 -69 -7 -26 12 -40 31 -24 12 10 21 7 44 -13
17 -14 27 -28 24 -31 -4 -3 1 -6 10 -6 9 0 26 -9 37 -20 11 -11 20 -18 20 -15
0 3 15 -12 33 -31 28 -31 36 -35 53 -26 12 6 26 7 34 2 8 -5 18 -6 22 -4 4 3
8 -2 8 -11 0 -13 5 -15 23 -9 29 10 89 6 101 -6 6 -6 28 -10 50 -10 29 0 47
-7 67 -26 15 -14 39 -27 53 -28 14 0 26 -4 26 -8 0 -5 9 -8 19 -8 15 0 18 -5
14 -22 -3 -13 -10 -28 -15 -34 -5 -7 -4 -22 3 -38 11 -23 35 -33 71 -27 4 0
10 -8 13 -19 3 -10 16 -22 28 -25 12 -4 41 -16 65 -27 35 -17 48 -18 68 -10
20 10 25 8 35 -9 6 -12 17 -18 25 -15 17 7 64 -21 64 -38 0 -17 49 -36 95 -36
37 0 41 -3 41 -22 -1 -19 4 -23 26 -20 14 1 30 -3 34 -9 4 -8 3 -9 -4 -5 -7 4
-12 2 -12 -3 0 -6 3 -11 8 -12 45 -4 127 -53 117 -69 -4 -6 3 -6 19 0 18 7 26
6 26 -1 0 -7 11 -9 30 -5 19 3 29 2 25 -4 -6 -10 15 -14 44 -10 8 1 12 -4 8
-13 -12 -32 46 12 61 45 82 189 200 502 272 718 119 356 191 624 295 1098 7
28 3 28 -75 -12z m-1238 -1479 c-15 -7 -29 -6 -44 1 -21 11 -19 11 11 6 23 -4
31 -3 27 5 -5 7 -1 8 10 4 16 -6 15 -8 -4 -16z m88 -49 c0 -4 -7 -4 -17 -1
-12 5 -14 3 -9 -8 4 -8 0 -5 -8 5 -26 32 -20 50 9 29 13 -10 25 -21 25 -25z"/>
<path d="M16886 7842 c-4 -7 -4 -16 -1 -22 3 -5 1 -10 -6 -10 -8 0 -8 -4 1
-15 16 -19 36 -19 43 0 8 19 -27 63 -37 47z"/>
</g>
</svg>
